<mxfile host="Electron" modified="2024-09-24T16:03:18.119Z" agent="Mozilla/5.0 (Windows NT 10.0; Win64; x64) AppleWebKit/537.36 (KHTML, like Gecko) draw.io/24.6.4 Chrome/124.0.6367.207 Electron/30.0.6 Safari/537.36" etag="vHh_CSlHTiHq7soTXCsn" version="24.6.4" type="device">
  <diagram name="Page-1" id="-H_mtQnk-PTXWXPvYvuk">
    <mxGraphModel dx="2364" dy="1530" grid="1" gridSize="10" guides="1" tooltips="1" connect="1" arrows="1" fold="1" page="1" pageScale="1" pageWidth="1169" pageHeight="827" math="0" shadow="0">
      <root>
        <mxCell id="0" />
        <mxCell id="1" parent="0" />
        <mxCell id="hHuEHk0eqW_QyOMlaKUz-1" value="" style="whiteSpace=wrap;html=1;fillColor=#D1D1D1;" parent="1" vertex="1">
          <mxGeometry x="-15" y="-530" width="1130" height="1210" as="geometry" />
        </mxCell>
        <mxCell id="hHuEHk0eqW_QyOMlaKUz-4" style="edgeStyle=orthogonalEdgeStyle;rounded=0;orthogonalLoop=1;jettySize=auto;html=1;" parent="1" source="zA23MoTUsTF4_91t8viU-3" target="hHuEHk0eqW_QyOMlaKUz-3" edge="1">
          <mxGeometry relative="1" as="geometry">
            <Array as="points">
              <mxPoint x="720" y="160" />
              <mxPoint x="550" y="160" />
            </Array>
          </mxGeometry>
        </mxCell>
        <mxCell id="hHuEHk0eqW_QyOMlaKUz-44" style="edgeStyle=orthogonalEdgeStyle;rounded=0;orthogonalLoop=1;jettySize=auto;html=1;entryX=1;entryY=0.5;entryDx=0;entryDy=0;" parent="1" source="zA23MoTUsTF4_91t8viU-3" target="hHuEHk0eqW_QyOMlaKUz-42" edge="1">
          <mxGeometry relative="1" as="geometry" />
        </mxCell>
        <mxCell id="zA23MoTUsTF4_91t8viU-3" value="pymongo-api" style="rounded=1;whiteSpace=wrap;html=1;" parent="1" vertex="1">
          <mxGeometry x="660" y="-30" width="120" height="60" as="geometry" />
        </mxCell>
        <mxCell id="hHuEHk0eqW_QyOMlaKUz-8" style="edgeStyle=orthogonalEdgeStyle;rounded=0;orthogonalLoop=1;jettySize=auto;html=1;" parent="1" source="hHuEHk0eqW_QyOMlaKUz-3" target="hHuEHk0eqW_QyOMlaKUz-7" edge="1">
          <mxGeometry relative="1" as="geometry" />
        </mxCell>
        <mxCell id="hHuEHk0eqW_QyOMlaKUz-9" style="edgeStyle=orthogonalEdgeStyle;rounded=0;orthogonalLoop=1;jettySize=auto;html=1;" parent="1" source="hHuEHk0eqW_QyOMlaKUz-3" target="hHuEHk0eqW_QyOMlaKUz-5" edge="1">
          <mxGeometry relative="1" as="geometry" />
        </mxCell>
        <mxCell id="hHuEHk0eqW_QyOMlaKUz-10" style="edgeStyle=orthogonalEdgeStyle;rounded=0;orthogonalLoop=1;jettySize=auto;html=1;" parent="1" source="hHuEHk0eqW_QyOMlaKUz-3" target="hHuEHk0eqW_QyOMlaKUz-6" edge="1">
          <mxGeometry relative="1" as="geometry" />
        </mxCell>
        <mxCell id="hHuEHk0eqW_QyOMlaKUz-3" value="Router" style="rounded=1;whiteSpace=wrap;html=1;fillColor=#d5e8d4;gradientColor=#97d077;strokeColor=#82b366;" parent="1" vertex="1">
          <mxGeometry x="490" y="210" width="120" height="60" as="geometry" />
        </mxCell>
        <mxCell id="hHuEHk0eqW_QyOMlaKUz-12" style="edgeStyle=orthogonalEdgeStyle;rounded=0;orthogonalLoop=1;jettySize=auto;html=1;entryX=0;entryY=0.5;entryDx=0;entryDy=0;" parent="1" target="hHuEHk0eqW_QyOMlaKUz-7" edge="1">
          <mxGeometry relative="1" as="geometry">
            <mxPoint x="349.96" y="389.9999999999998" as="sourcePoint" />
            <mxPoint x="489.96" y="400" as="targetPoint" />
            <Array as="points">
              <mxPoint x="420" y="390" />
              <mxPoint x="420" y="390" />
            </Array>
          </mxGeometry>
        </mxCell>
        <mxCell id="hHuEHk0eqW_QyOMlaKUz-5" value="Shard1" style="shape=cylinder3;whiteSpace=wrap;html=1;boundedLbl=1;backgroundOutline=1;size=15;" parent="1" vertex="1">
          <mxGeometry x="230" y="340" width="120" height="110" as="geometry" />
        </mxCell>
        <mxCell id="hHuEHk0eqW_QyOMlaKUz-11" style="edgeStyle=orthogonalEdgeStyle;rounded=0;orthogonalLoop=1;jettySize=auto;html=1;entryX=1;entryY=0.5;entryDx=0;entryDy=0;" parent="1" source="hHuEHk0eqW_QyOMlaKUz-6" target="hHuEHk0eqW_QyOMlaKUz-7" edge="1">
          <mxGeometry relative="1" as="geometry">
            <Array as="points">
              <mxPoint x="700" y="390" />
              <mxPoint x="700" y="390" />
            </Array>
          </mxGeometry>
        </mxCell>
        <mxCell id="hHuEHk0eqW_QyOMlaKUz-19" style="edgeStyle=orthogonalEdgeStyle;rounded=0;orthogonalLoop=1;jettySize=auto;html=1;" parent="1" source="hHuEHk0eqW_QyOMlaKUz-6" target="hHuEHk0eqW_QyOMlaKUz-17" edge="1">
          <mxGeometry relative="1" as="geometry" />
        </mxCell>
        <mxCell id="hHuEHk0eqW_QyOMlaKUz-6" value="Shard2" style="shape=cylinder3;whiteSpace=wrap;html=1;boundedLbl=1;backgroundOutline=1;size=15;" parent="1" vertex="1">
          <mxGeometry x="750" y="340" width="120" height="110" as="geometry" />
        </mxCell>
        <mxCell id="hHuEHk0eqW_QyOMlaKUz-7" value="&lt;font style=&quot;font-size: 13px;&quot;&gt;Configuration service&lt;/font&gt;" style="rounded=1;whiteSpace=wrap;html=1;fillColor=#cce5ff;strokeColor=#36393d;" parent="1" vertex="1">
          <mxGeometry x="490" y="360" width="120" height="60" as="geometry" />
        </mxCell>
        <mxCell id="hHuEHk0eqW_QyOMlaKUz-13" value="Shard1_1" style="shape=cylinder3;whiteSpace=wrap;html=1;boundedLbl=1;backgroundOutline=1;size=15;" parent="1" vertex="1">
          <mxGeometry x="70" y="210" width="120" height="110" as="geometry" />
        </mxCell>
        <mxCell id="hHuEHk0eqW_QyOMlaKUz-14" value="Shard1_2" style="shape=cylinder3;whiteSpace=wrap;html=1;boundedLbl=1;backgroundOutline=1;size=15;" parent="1" vertex="1">
          <mxGeometry x="70" y="340" width="120" height="110" as="geometry" />
        </mxCell>
        <mxCell id="hHuEHk0eqW_QyOMlaKUz-15" value="Shard1_3" style="shape=cylinder3;whiteSpace=wrap;html=1;boundedLbl=1;backgroundOutline=1;size=15;" parent="1" vertex="1">
          <mxGeometry x="70" y="475" width="120" height="110" as="geometry" />
        </mxCell>
        <mxCell id="hHuEHk0eqW_QyOMlaKUz-16" value="Shard2_1" style="shape=cylinder3;whiteSpace=wrap;html=1;boundedLbl=1;backgroundOutline=1;size=15;" parent="1" vertex="1">
          <mxGeometry x="920" y="210" width="120" height="110" as="geometry" />
        </mxCell>
        <mxCell id="hHuEHk0eqW_QyOMlaKUz-17" value="Shard2_2" style="shape=cylinder3;whiteSpace=wrap;html=1;boundedLbl=1;backgroundOutline=1;size=15;" parent="1" vertex="1">
          <mxGeometry x="920" y="340" width="120" height="110" as="geometry" />
        </mxCell>
        <mxCell id="hHuEHk0eqW_QyOMlaKUz-18" value="Shard2_3" style="shape=cylinder3;whiteSpace=wrap;html=1;boundedLbl=1;backgroundOutline=1;size=15;" parent="1" vertex="1">
          <mxGeometry x="920" y="470" width="120" height="110" as="geometry" />
        </mxCell>
        <mxCell id="hHuEHk0eqW_QyOMlaKUz-20" style="edgeStyle=orthogonalEdgeStyle;rounded=0;orthogonalLoop=1;jettySize=auto;html=1;entryX=0;entryY=0.5;entryDx=0;entryDy=0;entryPerimeter=0;" parent="1" source="hHuEHk0eqW_QyOMlaKUz-6" target="hHuEHk0eqW_QyOMlaKUz-16" edge="1">
          <mxGeometry relative="1" as="geometry">
            <Array as="points">
              <mxPoint x="895" y="380" />
              <mxPoint x="895" y="265" />
            </Array>
          </mxGeometry>
        </mxCell>
        <mxCell id="hHuEHk0eqW_QyOMlaKUz-21" style="edgeStyle=orthogonalEdgeStyle;rounded=0;orthogonalLoop=1;jettySize=auto;html=1;entryX=0.008;entryY=0.564;entryDx=0;entryDy=0;entryPerimeter=0;" parent="1" source="hHuEHk0eqW_QyOMlaKUz-6" target="hHuEHk0eqW_QyOMlaKUz-18" edge="1">
          <mxGeometry relative="1" as="geometry">
            <Array as="points">
              <mxPoint x="895" y="410" />
              <mxPoint x="895" y="532" />
            </Array>
          </mxGeometry>
        </mxCell>
        <mxCell id="hHuEHk0eqW_QyOMlaKUz-22" style="edgeStyle=orthogonalEdgeStyle;rounded=0;orthogonalLoop=1;jettySize=auto;html=1;entryX=1;entryY=0.5;entryDx=0;entryDy=0;entryPerimeter=0;" parent="1" source="hHuEHk0eqW_QyOMlaKUz-5" target="hHuEHk0eqW_QyOMlaKUz-14" edge="1">
          <mxGeometry relative="1" as="geometry" />
        </mxCell>
        <mxCell id="hHuEHk0eqW_QyOMlaKUz-23" style="edgeStyle=orthogonalEdgeStyle;rounded=0;orthogonalLoop=1;jettySize=auto;html=1;entryX=1;entryY=0.5;entryDx=0;entryDy=0;entryPerimeter=0;" parent="1" source="hHuEHk0eqW_QyOMlaKUz-5" target="hHuEHk0eqW_QyOMlaKUz-13" edge="1">
          <mxGeometry relative="1" as="geometry">
            <Array as="points">
              <mxPoint x="210" y="380" />
              <mxPoint x="210" y="265" />
            </Array>
          </mxGeometry>
        </mxCell>
        <mxCell id="hHuEHk0eqW_QyOMlaKUz-24" style="edgeStyle=orthogonalEdgeStyle;rounded=0;orthogonalLoop=1;jettySize=auto;html=1;entryX=1;entryY=0.5;entryDx=0;entryDy=0;entryPerimeter=0;" parent="1" source="hHuEHk0eqW_QyOMlaKUz-5" target="hHuEHk0eqW_QyOMlaKUz-15" edge="1">
          <mxGeometry relative="1" as="geometry">
            <Array as="points">
              <mxPoint x="210" y="410" />
              <mxPoint x="210" y="530" />
            </Array>
          </mxGeometry>
        </mxCell>
        <mxCell id="hHuEHk0eqW_QyOMlaKUz-25" style="edgeStyle=orthogonalEdgeStyle;rounded=0;orthogonalLoop=1;jettySize=auto;html=1;entryX=0.5;entryY=0;entryDx=0;entryDy=0;entryPerimeter=0;startArrow=block;startFill=1;" parent="1" source="hHuEHk0eqW_QyOMlaKUz-16" target="hHuEHk0eqW_QyOMlaKUz-17" edge="1">
          <mxGeometry relative="1" as="geometry" />
        </mxCell>
        <mxCell id="hHuEHk0eqW_QyOMlaKUz-26" style="edgeStyle=orthogonalEdgeStyle;rounded=0;orthogonalLoop=1;jettySize=auto;html=1;entryX=0.5;entryY=0;entryDx=0;entryDy=0;entryPerimeter=0;startArrow=block;startFill=1;" parent="1" source="hHuEHk0eqW_QyOMlaKUz-17" target="hHuEHk0eqW_QyOMlaKUz-18" edge="1">
          <mxGeometry relative="1" as="geometry" />
        </mxCell>
        <mxCell id="hHuEHk0eqW_QyOMlaKUz-27" style="edgeStyle=orthogonalEdgeStyle;rounded=0;orthogonalLoop=1;jettySize=auto;html=1;entryX=0.5;entryY=1;entryDx=0;entryDy=0;entryPerimeter=0;startArrow=block;startFill=1;" parent="1" source="hHuEHk0eqW_QyOMlaKUz-14" target="hHuEHk0eqW_QyOMlaKUz-13" edge="1">
          <mxGeometry relative="1" as="geometry" />
        </mxCell>
        <mxCell id="hHuEHk0eqW_QyOMlaKUz-28" style="edgeStyle=orthogonalEdgeStyle;rounded=0;orthogonalLoop=1;jettySize=auto;html=1;entryX=0.5;entryY=1;entryDx=0;entryDy=0;entryPerimeter=0;startArrow=block;startFill=1;" parent="1" source="hHuEHk0eqW_QyOMlaKUz-15" target="hHuEHk0eqW_QyOMlaKUz-14" edge="1">
          <mxGeometry relative="1" as="geometry" />
        </mxCell>
        <mxCell id="hHuEHk0eqW_QyOMlaKUz-29" value="Redis" style="shape=cylinder3;whiteSpace=wrap;html=1;boundedLbl=1;backgroundOutline=1;size=15;fillColor=#cce5ff;strokeColor=#36393d;" parent="1" vertex="1">
          <mxGeometry x="505" y="50" width="90" height="90" as="geometry" />
        </mxCell>
        <mxCell id="hHuEHk0eqW_QyOMlaKUz-35" style="edgeStyle=orthogonalEdgeStyle;rounded=0;orthogonalLoop=1;jettySize=auto;html=1;" parent="1" source="hHuEHk0eqW_QyOMlaKUz-33" target="zA23MoTUsTF4_91t8viU-3" edge="1">
          <mxGeometry relative="1" as="geometry" />
        </mxCell>
        <mxCell id="hHuEHk0eqW_QyOMlaKUz-40" style="edgeStyle=orthogonalEdgeStyle;rounded=0;orthogonalLoop=1;jettySize=auto;html=1;" parent="1" source="hHuEHk0eqW_QyOMlaKUz-33" target="hHuEHk0eqW_QyOMlaKUz-36" edge="1">
          <mxGeometry relative="1" as="geometry" />
        </mxCell>
        <mxCell id="hHuEHk0eqW_QyOMlaKUz-33" value="Api-Gateway" style="rounded=1;whiteSpace=wrap;html=1;" parent="1" vertex="1">
          <mxGeometry x="490" y="-160" width="120" height="60" as="geometry" />
        </mxCell>
        <mxCell id="hHuEHk0eqW_QyOMlaKUz-37" style="edgeStyle=orthogonalEdgeStyle;rounded=0;orthogonalLoop=1;jettySize=auto;html=1;" parent="1" source="hHuEHk0eqW_QyOMlaKUz-36" target="hHuEHk0eqW_QyOMlaKUz-3" edge="1">
          <mxGeometry relative="1" as="geometry">
            <Array as="points">
              <mxPoint x="380" y="160" />
              <mxPoint x="550" y="160" />
            </Array>
          </mxGeometry>
        </mxCell>
        <mxCell id="hHuEHk0eqW_QyOMlaKUz-43" style="edgeStyle=orthogonalEdgeStyle;rounded=0;orthogonalLoop=1;jettySize=auto;html=1;entryX=0;entryY=0.5;entryDx=0;entryDy=0;" parent="1" source="hHuEHk0eqW_QyOMlaKUz-36" target="hHuEHk0eqW_QyOMlaKUz-42" edge="1">
          <mxGeometry relative="1" as="geometry" />
        </mxCell>
        <mxCell id="hHuEHk0eqW_QyOMlaKUz-36" value="pymongo-api" style="rounded=1;whiteSpace=wrap;html=1;" parent="1" vertex="1">
          <mxGeometry x="320" y="-30" width="120" height="60" as="geometry" />
        </mxCell>
        <mxCell id="hHuEHk0eqW_QyOMlaKUz-38" style="edgeStyle=orthogonalEdgeStyle;rounded=0;orthogonalLoop=1;jettySize=auto;html=1;entryX=0;entryY=0.5;entryDx=0;entryDy=0;entryPerimeter=0;" parent="1" source="hHuEHk0eqW_QyOMlaKUz-36" target="hHuEHk0eqW_QyOMlaKUz-29" edge="1">
          <mxGeometry relative="1" as="geometry">
            <Array as="points">
              <mxPoint x="380" y="95" />
            </Array>
          </mxGeometry>
        </mxCell>
        <mxCell id="hHuEHk0eqW_QyOMlaKUz-41" style="edgeStyle=orthogonalEdgeStyle;rounded=0;orthogonalLoop=1;jettySize=auto;html=1;entryX=1;entryY=0.5;entryDx=0;entryDy=0;entryPerimeter=0;" parent="1" source="zA23MoTUsTF4_91t8viU-3" target="hHuEHk0eqW_QyOMlaKUz-29" edge="1">
          <mxGeometry relative="1" as="geometry">
            <Array as="points">
              <mxPoint x="720" y="95" />
            </Array>
          </mxGeometry>
        </mxCell>
        <mxCell id="hHuEHk0eqW_QyOMlaKUz-42" value="Consul" style="rounded=1;whiteSpace=wrap;html=1;fillColor=#d5e8d4;strokeColor=#82b366;" parent="1" vertex="1">
          <mxGeometry x="490" y="-30" width="120" height="60" as="geometry" />
        </mxCell>
        <mxCell id="hHuEHk0eqW_QyOMlaKUz-47" style="edgeStyle=orthogonalEdgeStyle;rounded=0;orthogonalLoop=1;jettySize=auto;html=1;" parent="1" source="hHuEHk0eqW_QyOMlaKUz-46" target="hHuEHk0eqW_QyOMlaKUz-42" edge="1">
          <mxGeometry relative="1" as="geometry" />
        </mxCell>
        <mxCell id="hHuEHk0eqW_QyOMlaKUz-46" value="consul_kv" style="rounded=1;whiteSpace=wrap;html=1;fillColor=#d5e8d4;strokeColor=#82b366;" parent="1" vertex="1">
          <mxGeometry x="520" y="-110" width="60" height="20" as="geometry" />
        </mxCell>
        <mxCell id="gqUazWxUUMIrcoBlPj1_-2" value="" style="rounded=0;whiteSpace=wrap;html=1;align=left;" vertex="1" parent="1">
          <mxGeometry x="100" y="-513" width="340" height="200" as="geometry" />
        </mxCell>
        <mxCell id="gqUazWxUUMIrcoBlPj1_-5" style="edgeStyle=orthogonalEdgeStyle;rounded=0;orthogonalLoop=1;jettySize=auto;html=1;" edge="1" parent="1" source="gqUazWxUUMIrcoBlPj1_-1" target="gqUazWxUUMIrcoBlPj1_-4">
          <mxGeometry relative="1" as="geometry" />
        </mxCell>
        <mxCell id="gqUazWxUUMIrcoBlPj1_-1" value="Actor" style="shape=umlActor;verticalLabelPosition=bottom;verticalAlign=top;html=1;outlineConnect=0;" vertex="1" parent="1">
          <mxGeometry x="130" y="-490" width="30" height="60" as="geometry" />
        </mxCell>
        <mxCell id="gqUazWxUUMIrcoBlPj1_-7" style="edgeStyle=orthogonalEdgeStyle;rounded=0;orthogonalLoop=1;jettySize=auto;html=1;entryX=0.5;entryY=0;entryDx=0;entryDy=0;" edge="1" parent="1" source="gqUazWxUUMIrcoBlPj1_-4" target="hHuEHk0eqW_QyOMlaKUz-33">
          <mxGeometry relative="1" as="geometry">
            <Array as="points">
              <mxPoint x="245" y="-270" />
              <mxPoint x="550" y="-270" />
            </Array>
          </mxGeometry>
        </mxCell>
        <mxCell id="gqUazWxUUMIrcoBlPj1_-4" value="CDN" style="rounded=1;whiteSpace=wrap;html=1;fillColor=#fff2cc;strokeColor=#d6b656;" vertex="1" parent="1">
          <mxGeometry x="185" y="-400" width="120" height="60" as="geometry" />
        </mxCell>
        <mxCell id="gqUazWxUUMIrcoBlPj1_-8" value="" style="rounded=0;whiteSpace=wrap;html=1;align=left;" vertex="1" parent="1">
          <mxGeometry x="640" y="-513" width="340" height="200" as="geometry" />
        </mxCell>
        <mxCell id="gqUazWxUUMIrcoBlPj1_-9" style="edgeStyle=orthogonalEdgeStyle;rounded=0;orthogonalLoop=1;jettySize=auto;html=1;" edge="1" parent="1" source="gqUazWxUUMIrcoBlPj1_-10" target="gqUazWxUUMIrcoBlPj1_-11">
          <mxGeometry relative="1" as="geometry" />
        </mxCell>
        <mxCell id="gqUazWxUUMIrcoBlPj1_-10" value="Actor" style="shape=umlActor;verticalLabelPosition=bottom;verticalAlign=top;html=1;outlineConnect=0;" vertex="1" parent="1">
          <mxGeometry x="670" y="-490" width="30" height="60" as="geometry" />
        </mxCell>
        <mxCell id="gqUazWxUUMIrcoBlPj1_-12" style="edgeStyle=orthogonalEdgeStyle;rounded=0;orthogonalLoop=1;jettySize=auto;html=1;" edge="1" parent="1" source="gqUazWxUUMIrcoBlPj1_-11" target="hHuEHk0eqW_QyOMlaKUz-33">
          <mxGeometry relative="1" as="geometry">
            <Array as="points">
              <mxPoint x="785" y="-270" />
              <mxPoint x="550" y="-270" />
            </Array>
          </mxGeometry>
        </mxCell>
        <mxCell id="gqUazWxUUMIrcoBlPj1_-11" value="CDN" style="rounded=1;whiteSpace=wrap;html=1;fillColor=#fff2cc;strokeColor=#d6b656;" vertex="1" parent="1">
          <mxGeometry x="725" y="-400" width="120" height="60" as="geometry" />
        </mxCell>
        <mxCell id="gqUazWxUUMIrcoBlPj1_-13" value="Region 1" style="rounded=0;whiteSpace=wrap;html=1;strokeColor=none;" vertex="1" parent="1">
          <mxGeometry x="305" y="-500" width="120" height="20" as="geometry" />
        </mxCell>
        <mxCell id="gqUazWxUUMIrcoBlPj1_-14" value="Region N" style="rounded=0;whiteSpace=wrap;html=1;strokeColor=none;" vertex="1" parent="1">
          <mxGeometry x="845" y="-500" width="120" height="20" as="geometry" />
        </mxCell>
        <mxCell id="gqUazWxUUMIrcoBlPj1_-15" value="Cache" style="rounded=1;whiteSpace=wrap;html=1;fillColor=#e1d5e7;strokeColor=#9673a6;" vertex="1" parent="1">
          <mxGeometry x="320" y="-400" width="110" height="60" as="geometry" />
        </mxCell>
        <mxCell id="gqUazWxUUMIrcoBlPj1_-16" value="Cache" style="rounded=1;whiteSpace=wrap;html=1;fillColor=#e1d5e7;strokeColor=#9673a6;" vertex="1" parent="1">
          <mxGeometry x="860" y="-400" width="110" height="60" as="geometry" />
        </mxCell>
      </root>
    </mxGraphModel>
  </diagram>
</mxfile>
